<svg width="239" height="332" viewBox="0 0 239 332" fill="none" xmlns="http://www.w3.org/2000/svg">
<g id="shade body">
<g id="Clip path group">
<mask id="mask0_12_2" style="mask-type:luminance" maskUnits="userSpaceOnUse" x="0" y="0" width="239" height="326">
<g id="clippath">
<path id="Vector" d="M221.41 148.03C221.52 206.03 221.63 264.03 221.75 322.03C187.75 325.37 152.3 325.39 119.58 325.39H119.03C86.31 325.39 50.87 325.37 16.86 322.03C16.96 264.03 17.08 206.03 17.18 148.03C17.2 138.55 17.19 128.98 16.98 119.4V119.38C16.23 87.49 13.02 55.58 0 27.08C0.07 27.01 0.150001 26.96 0.220001 26.89C3.59 24.1 7.79 22.54 11.89 21.03C30.98 14.02 50.07 7.01 69.17 0C72.44 9.44 79.8 17.25 88.59 22.03C97.9 27.09 108.54 28.73 119.27 28.73H119.31C130.05 28.73 140.69 27.09 149.99 22.03C158.79 17.25 166.15 9.44 169.42 0C188.51 7.01 207.6 14.02 226.69 21.03C230.8 22.54 235 24.1 238.37 26.89C238.45 26.96 238.53 27.01 238.59 27.08C225.58 55.58 222.36 87.51 221.61 119.39C221.39 128.97 221.37 138.54 221.4 148.03H221.41Z" fill="white"/>
</g>
</mask>
<g mask="url(#mask0_12_2)">
<g id="Group">
<g id="Group_2">
<path id="Vector_2" d="M15.05 104.08C22.44 96.32 31.9 90.54 42.18 87.5" stroke="#E4E5EB" stroke-linecap="round" stroke-linejoin="round"/>
<path id="Vector_3" d="M15.59 114.06C23.69 110.81 32.33 108.92 41.05 108.48" stroke="#E4E5EB" stroke-linecap="round" stroke-linejoin="round"/>
<path id="Vector_4" d="M29.68 149.75C28.49 179.06 28.37 208.41 29.32 237.73" stroke="#E4E5EB" stroke-linecap="round" stroke-linejoin="round"/>
<path id="Vector_5" d="M13.8 307.14C33.24 307.81 52.69 308.48 72.13 309.15" stroke="#E4E5EB" stroke-linecap="round" stroke-linejoin="round"/>
<path id="Vector_6" d="M217.42 26.95C202.58 19.19 186.59 13.66 170.13 10.59" stroke="#E4E5EB" stroke-linecap="round" stroke-linejoin="round"/>
<path id="Vector_7" d="M223.54 104.08C216.15 96.32 206.69 90.54 196.41 87.5" stroke="#E4E5EB" stroke-linecap="round" stroke-linejoin="round"/>
<path id="Vector_8" d="M223 114.06C214.9 110.81 206.26 108.92 197.54 108.48" stroke="#E4E5EB" stroke-linecap="round" stroke-linejoin="round"/>
<path id="Vector_9" d="M208.92 149.75C210.11 179.06 210.23 208.41 209.28 237.73" stroke="#E4E5EB" stroke-linecap="round" stroke-linejoin="round"/>
<path id="Vector_10" d="M224.79 307.14C205.35 307.81 185.9 308.48 166.46 309.15" stroke="#E4E5EB" stroke-linecap="round" stroke-linejoin="round"/>
<path id="Vector_11" d="M21.18 26.95C36.02 19.19 52.01 13.66 68.47 10.59" stroke="#E4E5EB" stroke-linecap="round" stroke-linejoin="round"/>
</g>
</g>
</g>
</g>
<g id="Vector_12" opacity="0.09" style="mix-blend-mode:multiply">
<path d="M16.98 119.38V119.4C17.19 128.98 17.2 138.55 17.18 148.03C17.08 206.03 16.96 264.03 16.86 322.03C16.85 324.67 16.85 327.33 16.85 329.97C19.06 330.19 21.28 330.39 23.51 330.58V160.8C23.51 117.76 20.12 87.89 20.12 87.89C18.62 89.92 17.16 91.89 15.71 93.83C16.41 102.31 16.79 110.85 16.99 119.39L16.98 119.38Z" fill="#383838"/>
</g>
<g id="Vector_13" opacity="0.09" style="mix-blend-mode:multiply">
<path d="M221.74 322.03C221.63 264.03 221.52 206.03 221.4 148.03C221.38 138.54 221.39 128.97 221.61 119.39C221.79 111.72 222.12 104.05 222.68 96.42C212.1 85.9 204.27 79.79 204.27 79.79C204.27 79.79 196.84 166.27 196.05 225.36C195.46 269.98 197.32 313.25 198.27 331.77C206.13 331.31 213.97 330.73 221.74 329.97C221.74 327.33 221.73 324.67 221.73 322.03H221.74Z" fill="#383838"/>
</g>
</g>
</svg>
